<svg width="233" height="59" viewBox="0 0 233 59" fill="none" xmlns="http://www.w3.org/2000/svg">
<path d="M38.84 45.324C38.84 46.596 38.628 47.764 38.204 48.828C37.78 49.892 37.184 50.808 36.416 51.576C35.648 52.344 34.724 52.94 33.644 53.364C32.564 53.788 31.364 54 30.044 54H23.432V36.648H30.044C31.364 36.648 32.564 36.864 33.644 37.296C34.724 37.72 35.648 38.316 36.416 39.084C37.184 39.844 37.78 40.756 38.204 41.82C38.628 42.884 38.84 44.052 38.84 45.324ZM35.528 45.324C35.528 44.372 35.4 43.52 35.144 42.768C34.896 42.008 34.532 41.368 34.052 40.848C33.58 40.32 33.004 39.916 32.324 39.636C31.652 39.356 30.892 39.216 30.044 39.216H26.672V51.432H30.044C30.892 51.432 31.652 51.292 32.324 51.012C33.004 50.732 33.58 50.332 34.052 49.812C34.532 49.284 34.896 48.644 35.144 47.892C35.4 47.132 35.528 46.276 35.528 45.324ZM48.9898 46.428C48.9898 46.044 48.9338 45.684 48.8218 45.348C48.7178 45.004 48.5578 44.704 48.3418 44.448C48.1258 44.192 47.8498 43.992 47.5138 43.848C47.1858 43.696 46.8018 43.62 46.3618 43.62C45.5058 43.62 44.8298 43.864 44.3338 44.352C43.8458 44.84 43.5338 45.532 43.3978 46.428H48.9898ZM43.3378 48.216C43.3858 48.848 43.4978 49.396 43.6738 49.86C43.8498 50.316 44.0818 50.696 44.3698 51C44.6578 51.296 44.9978 51.52 45.3898 51.672C45.7898 51.816 46.2298 51.888 46.7098 51.888C47.1898 51.888 47.6018 51.832 47.9458 51.72C48.2978 51.608 48.6018 51.484 48.8578 51.348C49.1218 51.212 49.3498 51.088 49.5418 50.976C49.7418 50.864 49.9338 50.808 50.1178 50.808C50.3658 50.808 50.5498 50.9 50.6698 51.084L51.5218 52.164C51.1938 52.548 50.8258 52.872 50.4178 53.136C50.0098 53.392 49.5818 53.6 49.1338 53.76C48.6938 53.912 48.2418 54.02 47.7778 54.084C47.3218 54.148 46.8778 54.18 46.4458 54.18C45.5898 54.18 44.7938 54.04 44.0578 53.76C43.3218 53.472 42.6818 53.052 42.1378 52.5C41.5938 51.94 41.1658 51.252 40.8538 50.436C40.5418 49.612 40.3857 48.66 40.3857 47.58C40.3857 46.74 40.5218 45.952 40.7938 45.216C41.0658 44.472 41.4538 43.828 41.9578 43.284C42.4698 42.732 43.0898 42.296 43.8178 41.976C44.5538 41.656 45.3818 41.496 46.3018 41.496C47.0778 41.496 47.7938 41.62 48.4498 41.868C49.1058 42.116 49.6698 42.48 50.1418 42.96C50.6138 43.432 50.9818 44.016 51.2458 44.712C51.5178 45.4 51.6537 46.188 51.6537 47.076C51.6537 47.524 51.6058 47.828 51.5098 47.988C51.4138 48.14 51.2298 48.216 50.9578 48.216H43.3378ZM64.6734 41.688L59.7894 54H57.1014L52.2174 41.688H54.6654C54.8894 41.688 55.0734 41.74 55.2174 41.844C55.3694 41.948 55.4694 42.08 55.5174 42.24L57.8934 48.816C58.0214 49.2 58.1334 49.576 58.2294 49.944C58.3254 50.312 58.4094 50.68 58.4814 51.048C58.5614 50.68 58.6494 50.312 58.7454 49.944C58.8414 49.576 58.9574 49.2 59.0934 48.816L61.5174 42.24C61.5734 42.08 61.6734 41.948 61.8174 41.844C61.9614 41.74 62.1334 41.688 62.3334 41.688H64.6734ZM73.8101 46.428C73.8101 46.044 73.7541 45.684 73.6421 45.348C73.5381 45.004 73.3781 44.704 73.1621 44.448C72.9461 44.192 72.6701 43.992 72.3341 43.848C72.0061 43.696 71.6221 43.62 71.1821 43.62C70.3261 43.62 69.6501 43.864 69.1541 44.352C68.6661 44.84 68.3541 45.532 68.2181 46.428H73.8101ZM68.1581 48.216C68.2061 48.848 68.3181 49.396 68.4941 49.86C68.6701 50.316 68.9021 50.696 69.1901 51C69.4781 51.296 69.8181 51.52 70.2101 51.672C70.6101 51.816 71.0501 51.888 71.5301 51.888C72.0101 51.888 72.4221 51.832 72.7661 51.72C73.1181 51.608 73.4221 51.484 73.6781 51.348C73.9421 51.212 74.1701 51.088 74.3621 50.976C74.5621 50.864 74.7541 50.808 74.9381 50.808C75.1861 50.808 75.3701 50.9 75.4901 51.084L76.3421 52.164C76.0141 52.548 75.6461 52.872 75.2381 53.136C74.8301 53.392 74.4021 53.6 73.9541 53.76C73.5141 53.912 73.0621 54.02 72.5981 54.084C72.1421 54.148 71.6981 54.18 71.2661 54.18C70.4101 54.18 69.6141 54.04 68.8781 53.76C68.1421 53.472 67.5021 53.052 66.9581 52.5C66.4141 51.94 65.9861 51.252 65.6741 50.436C65.3621 49.612 65.2061 48.66 65.2061 47.58C65.2061 46.74 65.3421 45.952 65.6141 45.216C65.8861 44.472 66.2741 43.828 66.7781 43.284C67.2901 42.732 67.9101 42.296 68.6381 41.976C69.3741 41.656 70.2021 41.496 71.1221 41.496C71.8981 41.496 72.6141 41.62 73.2701 41.868C73.9261 42.116 74.4901 42.48 74.9621 42.96C75.4341 43.432 75.8021 44.016 76.0661 44.712C76.3381 45.4 76.4741 46.188 76.4741 47.076C76.4741 47.524 76.4261 47.828 76.3301 47.988C76.2341 48.14 76.0501 48.216 75.7781 48.216H68.1581ZM81.6984 36.168V54H78.7344V36.168H81.6984ZM90.0995 41.496C91.0115 41.496 91.8395 41.644 92.5835 41.94C93.3355 42.236 93.9755 42.656 94.5035 43.2C95.0395 43.744 95.4515 44.408 95.7395 45.192C96.0275 45.976 96.1715 46.852 96.1715 47.82C96.1715 48.796 96.0275 49.676 95.7395 50.46C95.4515 51.244 95.0395 51.912 94.5035 52.464C93.9755 53.016 93.3355 53.44 92.5835 53.736C91.8395 54.032 91.0115 54.18 90.0995 54.18C89.1795 54.18 88.3435 54.032 87.5915 53.736C86.8395 53.44 86.1955 53.016 85.6595 52.464C85.1315 51.912 84.7195 51.244 84.4235 50.46C84.1355 49.676 83.9915 48.796 83.9915 47.82C83.9915 46.852 84.1355 45.976 84.4235 45.192C84.7195 44.408 85.1315 43.744 85.6595 43.2C86.1955 42.656 86.8395 42.236 87.5915 41.94C88.3435 41.644 89.1795 41.496 90.0995 41.496ZM90.0995 51.9C91.1235 51.9 91.8795 51.556 92.3675 50.868C92.8635 50.18 93.1115 49.172 93.1115 47.844C93.1115 46.516 92.8635 45.504 92.3675 44.808C91.8795 44.112 91.1235 43.764 90.0995 43.764C89.0595 43.764 88.2875 44.116 87.7835 44.82C87.2875 45.516 87.0395 46.524 87.0395 47.844C87.0395 49.164 87.2875 50.172 87.7835 50.868C88.2875 51.556 89.0595 51.9 90.0995 51.9ZM101.397 50.808C101.733 51.216 102.097 51.504 102.489 51.672C102.889 51.84 103.321 51.924 103.785 51.924C104.233 51.924 104.637 51.84 104.997 51.672C105.357 51.504 105.661 51.248 105.909 50.904C106.165 50.56 106.361 50.128 106.497 49.608C106.633 49.08 106.701 48.46 106.701 47.748C106.701 47.028 106.641 46.42 106.521 45.924C106.409 45.42 106.245 45.012 106.029 44.7C105.813 44.388 105.549 44.16 105.237 44.016C104.933 43.872 104.585 43.8 104.193 43.8C103.577 43.8 103.053 43.932 102.621 44.196C102.189 44.452 101.781 44.816 101.397 45.288V50.808ZM101.241 43.368C101.745 42.8 102.317 42.34 102.957 41.988C103.597 41.636 104.349 41.46 105.213 41.46C105.885 41.46 106.497 41.6 107.049 41.88C107.609 42.16 108.089 42.568 108.489 43.104C108.897 43.632 109.209 44.288 109.425 45.072C109.649 45.848 109.761 46.74 109.761 47.748C109.761 48.668 109.637 49.52 109.389 50.304C109.141 51.088 108.785 51.768 108.321 52.344C107.865 52.92 107.309 53.372 106.653 53.7C106.005 54.02 105.277 54.18 104.469 54.18C103.781 54.18 103.193 54.076 102.705 53.868C102.217 53.652 101.781 53.356 101.397 52.98V58.02H98.4328V41.688H100.245C100.629 41.688 100.881 41.868 101.001 42.228L101.241 43.368ZM120.005 46.428C120.005 46.044 119.949 45.684 119.837 45.348C119.733 45.004 119.573 44.704 119.357 44.448C119.141 44.192 118.865 43.992 118.529 43.848C118.201 43.696 117.817 43.62 117.377 43.62C116.521 43.62 115.845 43.864 115.349 44.352C114.861 44.84 114.549 45.532 114.413 46.428H120.005ZM114.353 48.216C114.401 48.848 114.513 49.396 114.689 49.86C114.865 50.316 115.097 50.696 115.385 51C115.673 51.296 116.013 51.52 116.405 51.672C116.805 51.816 117.245 51.888 117.725 51.888C118.205 51.888 118.617 51.832 118.961 51.72C119.313 51.608 119.617 51.484 119.873 51.348C120.137 51.212 120.365 51.088 120.557 50.976C120.757 50.864 120.949 50.808 121.133 50.808C121.381 50.808 121.565 50.9 121.685 51.084L122.537 52.164C122.209 52.548 121.841 52.872 121.433 53.136C121.025 53.392 120.597 53.6 120.149 53.76C119.709 53.912 119.257 54.02 118.793 54.084C118.337 54.148 117.893 54.18 117.461 54.18C116.605 54.18 115.809 54.04 115.073 53.76C114.337 53.472 113.697 53.052 113.153 52.5C112.609 51.94 112.181 51.252 111.869 50.436C111.557 49.612 111.401 48.66 111.401 47.58C111.401 46.74 111.537 45.952 111.809 45.216C112.081 44.472 112.469 43.828 112.973 43.284C113.485 42.732 114.105 42.296 114.833 41.976C115.569 41.656 116.397 41.496 117.317 41.496C118.093 41.496 118.809 41.62 119.465 41.868C120.121 42.116 120.685 42.48 121.157 42.96C121.629 43.432 121.997 44.016 122.261 44.712C122.533 45.4 122.669 46.188 122.669 47.076C122.669 47.524 122.621 47.828 122.525 47.988C122.429 48.14 122.245 48.216 121.973 48.216H114.353ZM127.69 43.824C128.074 43.088 128.53 42.512 129.058 42.096C129.586 41.672 130.21 41.46 130.93 41.46C131.498 41.46 131.954 41.584 132.298 41.832L132.106 44.052C132.066 44.196 132.006 44.3 131.926 44.364C131.854 44.42 131.754 44.448 131.626 44.448C131.506 44.448 131.326 44.428 131.086 44.388C130.854 44.348 130.626 44.328 130.402 44.328C130.074 44.328 129.782 44.376 129.526 44.472C129.27 44.568 129.038 44.708 128.83 44.892C128.63 45.068 128.45 45.284 128.29 45.54C128.138 45.796 127.994 46.088 127.858 46.416V54H124.894V41.688H126.634C126.938 41.688 127.15 41.744 127.27 41.856C127.39 41.96 127.47 42.152 127.51 42.432L127.69 43.824ZM140.031 54V43.92L138.963 43.752C138.731 43.704 138.543 43.624 138.399 43.512C138.263 43.392 138.195 43.224 138.195 43.008V41.796H140.031V40.884C140.031 40.18 140.135 39.548 140.343 38.988C140.559 38.428 140.863 37.952 141.255 37.56C141.655 37.168 142.139 36.868 142.707 36.66C143.275 36.452 143.915 36.348 144.627 36.348C145.195 36.348 145.723 36.424 146.211 36.576L146.151 38.064C146.143 38.176 146.111 38.268 146.055 38.34C145.999 38.404 145.923 38.456 145.827 38.496C145.739 38.528 145.635 38.552 145.515 38.568C145.395 38.576 145.267 38.58 145.131 38.58C144.779 38.58 144.463 38.62 144.183 38.7C143.911 38.772 143.679 38.904 143.487 39.096C143.295 39.28 143.147 39.528 143.043 39.84C142.947 40.144 142.899 40.524 142.899 40.98V41.796H146.103V43.908H142.995V54H140.031ZM158.377 41.688V54H156.565C156.173 54 155.925 53.82 155.821 53.46L155.617 52.476C155.113 52.988 154.557 53.404 153.949 53.724C153.341 54.036 152.625 54.192 151.801 54.192C151.129 54.192 150.533 54.08 150.013 53.856C149.501 53.624 149.069 53.3 148.717 52.884C148.365 52.468 148.097 51.976 147.913 51.408C147.737 50.832 147.649 50.2 147.649 49.512V41.688H150.613V49.512C150.613 50.264 150.785 50.848 151.129 51.264C151.481 51.672 152.005 51.876 152.701 51.876C153.213 51.876 153.693 51.764 154.141 51.54C154.589 51.308 155.013 50.992 155.413 50.592V41.688H158.377ZM164.316 36.168V54H161.352V36.168H164.316ZM170.269 36.168V54H167.305V36.168H170.269ZM180.734 44.088C180.654 44.216 180.57 44.308 180.482 44.364C180.394 44.412 180.282 44.436 180.146 44.436C180.002 44.436 179.846 44.396 179.678 44.316C179.518 44.236 179.33 44.148 179.114 44.052C178.898 43.948 178.65 43.856 178.37 43.776C178.098 43.696 177.774 43.656 177.398 43.656C176.814 43.656 176.354 43.78 176.018 44.028C175.69 44.276 175.526 44.6 175.526 45C175.526 45.264 175.61 45.488 175.778 45.672C175.954 45.848 176.182 46.004 176.462 46.14C176.75 46.276 177.074 46.4 177.434 46.512C177.794 46.616 178.158 46.732 178.526 46.86C178.902 46.988 179.27 47.136 179.63 47.304C179.99 47.464 180.31 47.672 180.59 47.928C180.878 48.176 181.106 48.476 181.274 48.828C181.45 49.18 181.538 49.604 181.538 50.1C181.538 50.692 181.43 51.24 181.214 51.744C181.006 52.24 180.694 52.672 180.278 53.04C179.862 53.4 179.346 53.684 178.73 53.892C178.122 54.092 177.418 54.192 176.618 54.192C176.194 54.192 175.778 54.152 175.37 54.072C174.97 54 174.582 53.896 174.206 53.76C173.838 53.624 173.494 53.464 173.174 53.28C172.862 53.096 172.586 52.896 172.346 52.68L173.03 51.552C173.118 51.416 173.222 51.312 173.342 51.24C173.462 51.168 173.614 51.132 173.798 51.132C173.982 51.132 174.154 51.184 174.314 51.288C174.482 51.392 174.674 51.504 174.89 51.624C175.106 51.744 175.358 51.856 175.646 51.96C175.942 52.064 176.314 52.116 176.762 52.116C177.114 52.116 177.414 52.076 177.662 51.996C177.918 51.908 178.126 51.796 178.286 51.66C178.454 51.524 178.574 51.368 178.646 51.192C178.726 51.008 178.766 50.82 178.766 50.628C178.766 50.34 178.678 50.104 178.502 49.92C178.334 49.736 178.106 49.576 177.818 49.44C177.538 49.304 177.214 49.184 176.846 49.08C176.486 48.968 176.114 48.848 175.73 48.72C175.354 48.592 174.982 48.444 174.614 48.276C174.254 48.1 173.93 47.88 173.642 47.616C173.362 47.352 173.134 47.028 172.958 46.644C172.79 46.26 172.706 45.796 172.706 45.252C172.706 44.748 172.806 44.268 173.006 43.812C173.206 43.356 173.498 42.96 173.882 42.624C174.274 42.28 174.758 42.008 175.334 41.808C175.918 41.6 176.59 41.496 177.35 41.496C178.198 41.496 178.97 41.636 179.666 41.916C180.362 42.196 180.942 42.564 181.406 43.02L180.734 44.088ZM187.873 54.192C186.801 54.192 185.977 53.892 185.401 53.292C184.833 52.684 184.549 51.848 184.549 50.784V43.908H183.289C183.129 43.908 182.993 43.856 182.881 43.752C182.769 43.648 182.713 43.492 182.713 43.284V42.108L184.693 41.784L185.317 38.424C185.357 38.264 185.433 38.14 185.545 38.052C185.657 37.964 185.801 37.92 185.977 37.92H187.513V41.796H190.801V43.908H187.513V50.58C187.513 50.964 187.605 51.264 187.789 51.48C187.981 51.696 188.241 51.804 188.569 51.804C188.753 51.804 188.905 51.784 189.025 51.744C189.153 51.696 189.261 51.648 189.349 51.6C189.445 51.552 189.529 51.508 189.601 51.468C189.673 51.42 189.745 51.396 189.817 51.396C189.905 51.396 189.977 51.42 190.033 51.468C190.089 51.508 190.149 51.572 190.213 51.66L191.101 53.1C190.669 53.46 190.173 53.732 189.613 53.916C189.053 54.1 188.473 54.192 187.873 54.192ZM199.202 48.744C198.346 48.784 197.626 48.86 197.042 48.972C196.458 49.076 195.99 49.212 195.638 49.38C195.286 49.548 195.034 49.744 194.882 49.968C194.73 50.192 194.654 50.436 194.654 50.7C194.654 51.22 194.806 51.592 195.11 51.816C195.422 52.04 195.826 52.152 196.322 52.152C196.93 52.152 197.454 52.044 197.894 51.828C198.342 51.604 198.778 51.268 199.202 50.82V48.744ZM192.41 43.404C193.826 42.108 195.53 41.46 197.522 41.46C198.242 41.46 198.886 41.58 199.454 41.82C200.022 42.052 200.502 42.38 200.894 42.804C201.286 43.22 201.582 43.72 201.782 44.304C201.99 44.888 202.094 45.528 202.094 46.224V54H200.75C200.47 54 200.254 53.96 200.102 53.88C199.95 53.792 199.83 53.62 199.742 53.364L199.478 52.476C199.166 52.756 198.862 53.004 198.566 53.22C198.27 53.428 197.962 53.604 197.642 53.748C197.322 53.892 196.978 54 196.61 54.072C196.25 54.152 195.85 54.192 195.41 54.192C194.89 54.192 194.41 54.124 193.97 53.988C193.53 53.844 193.15 53.632 192.83 53.352C192.51 53.072 192.262 52.724 192.086 52.308C191.91 51.892 191.822 51.408 191.822 50.856C191.822 50.544 191.874 50.236 191.978 49.932C192.082 49.62 192.25 49.324 192.482 49.044C192.722 48.764 193.03 48.5 193.406 48.252C193.782 48.004 194.242 47.788 194.786 47.604C195.338 47.42 195.978 47.272 196.706 47.16C197.434 47.04 198.266 46.968 199.202 46.944V46.224C199.202 45.4 199.026 44.792 198.674 44.4C198.322 44 197.814 43.8 197.15 43.8C196.67 43.8 196.27 43.856 195.95 43.968C195.638 44.08 195.362 44.208 195.122 44.352C194.882 44.488 194.662 44.612 194.462 44.724C194.27 44.836 194.054 44.892 193.814 44.892C193.606 44.892 193.43 44.84 193.286 44.736C193.142 44.624 193.026 44.496 192.938 44.352L192.41 43.404ZM213.706 44.292C213.618 44.404 213.53 44.492 213.442 44.556C213.362 44.62 213.242 44.652 213.082 44.652C212.93 44.652 212.782 44.608 212.638 44.52C212.494 44.424 212.322 44.32 212.122 44.208C211.922 44.088 211.682 43.984 211.402 43.896C211.13 43.8 210.79 43.752 210.382 43.752C209.862 43.752 209.406 43.848 209.014 44.04C208.622 44.224 208.294 44.492 208.03 44.844C207.774 45.196 207.582 45.624 207.454 46.128C207.326 46.624 207.262 47.188 207.262 47.82C207.262 48.476 207.33 49.06 207.466 49.572C207.61 50.084 207.814 50.516 208.078 50.868C208.342 51.212 208.662 51.476 209.038 51.66C209.414 51.836 209.838 51.924 210.31 51.924C210.782 51.924 211.162 51.868 211.45 51.756C211.746 51.636 211.994 51.508 212.194 51.372C212.394 51.228 212.566 51.1 212.71 50.988C212.862 50.868 213.03 50.808 213.214 50.808C213.454 50.808 213.634 50.9 213.754 51.084L214.606 52.164C214.278 52.548 213.922 52.872 213.538 53.136C213.154 53.392 212.754 53.6 212.338 53.76C211.93 53.912 211.506 54.02 211.066 54.084C210.634 54.148 210.202 54.18 209.77 54.18C209.01 54.18 208.294 54.04 207.622 53.76C206.95 53.472 206.362 53.056 205.858 52.512C205.354 51.968 204.954 51.304 204.658 50.52C204.37 49.728 204.226 48.828 204.226 47.82C204.226 46.916 204.354 46.08 204.61 45.312C204.874 44.536 205.258 43.868 205.762 43.308C206.266 42.74 206.89 42.296 207.634 41.976C208.378 41.656 209.234 41.496 210.202 41.496C211.122 41.496 211.926 41.644 212.614 41.94C213.31 42.236 213.934 42.66 214.486 43.212L213.706 44.292ZM219.428 36.168V46.38H219.98C220.18 46.38 220.336 46.356 220.448 46.308C220.568 46.252 220.688 46.144 220.808 45.984L223.868 42.204C223.996 42.036 224.136 41.908 224.288 41.82C224.448 41.732 224.652 41.688 224.9 41.688H227.612L223.784 46.26C223.512 46.62 223.216 46.896 222.896 47.088C223.064 47.208 223.212 47.348 223.34 47.508C223.476 47.668 223.604 47.84 223.724 48.024L227.828 54H225.152C224.92 54 224.72 53.964 224.552 53.892C224.384 53.812 224.244 53.672 224.132 53.472L220.988 48.804C220.876 48.62 220.76 48.5 220.64 48.444C220.52 48.388 220.34 48.36 220.1 48.36H219.428V54H216.464V36.168H219.428Z" fill="#0ACF83"/>
<path d="M21.5 8.31L12.74 30H9.095L0.335 8.31H3.575C3.925 8.31 4.21 8.395 4.43 8.565C4.65 8.735 4.815 8.955 4.925 9.225L10.04 22.455C10.21 22.885 10.37 23.36 10.52 23.88C10.68 24.39 10.83 24.925 10.97 25.485C11.09 24.925 11.22 24.39 11.36 23.88C11.5 23.36 11.655 22.885 11.825 22.455L16.91 9.225C16.99 8.995 17.145 8.785 17.375 8.595C17.615 8.405 17.905 8.31 18.245 8.31H21.5ZM29.0049 23.43C27.9349 23.48 27.0349 23.575 26.3049 23.715C25.5749 23.845 24.9899 24.015 24.5499 24.225C24.1099 24.435 23.7949 24.68 23.6049 24.96C23.4149 25.24 23.3199 25.545 23.3199 25.875C23.3199 26.525 23.5099 26.99 23.8899 27.27C24.2799 27.55 24.7849 27.69 25.4049 27.69C26.1649 27.69 26.8199 27.555 27.3699 27.285C27.9299 27.005 28.4749 26.585 29.0049 26.025V23.43ZM20.5149 16.755C22.2849 15.135 24.4149 14.325 26.9049 14.325C27.8049 14.325 28.6099 14.475 29.3199 14.775C30.0299 15.065 30.6299 15.475 31.1199 16.005C31.6099 16.525 31.9799 17.15 32.2299 17.88C32.4899 18.61 32.6199 19.41 32.6199 20.28V30H30.9399C30.5899 30 30.3199 29.95 30.1299 29.85C29.9399 29.74 29.7899 29.525 29.6799 29.205L29.3499 28.095C28.9599 28.445 28.5799 28.755 28.2099 29.025C27.8399 29.285 27.4549 29.505 27.0549 29.685C26.6549 29.865 26.2249 30 25.7649 30.09C25.3149 30.19 24.8149 30.24 24.2649 30.24C23.6149 30.24 23.0149 30.155 22.4649 29.985C21.9149 29.805 21.4399 29.54 21.0399 29.19C20.6399 28.84 20.3299 28.405 20.1099 27.885C19.8899 27.365 19.7799 26.76 19.7799 26.07C19.7799 25.68 19.8449 25.295 19.9749 24.915C20.1049 24.525 20.3149 24.155 20.6049 23.805C20.9049 23.455 21.2899 23.125 21.7599 22.815C22.2299 22.505 22.8049 22.235 23.4849 22.005C24.1749 21.775 24.9749 21.59 25.8849 21.45C26.7949 21.3 27.8349 21.21 29.0049 21.18V20.28C29.0049 19.25 28.7849 18.49 28.3449 18C27.9049 17.5 27.2699 17.25 26.4399 17.25C25.8399 17.25 25.3399 17.32 24.9399 17.46C24.5499 17.6 24.2049 17.76 23.9049 17.94C23.6049 18.11 23.3299 18.265 23.0799 18.405C22.8399 18.545 22.5699 18.615 22.2699 18.615C22.0099 18.615 21.7899 18.55 21.6099 18.42C21.4299 18.28 21.2849 18.12 21.1749 17.94L20.5149 16.755ZM39.8593 7.71V30H36.1543V7.71H39.8593ZM53.4657 20.535C53.4657 20.055 53.3957 19.605 53.2557 19.185C53.1257 18.755 52.9257 18.38 52.6557 18.06C52.3857 17.74 52.0407 17.49 51.6207 17.31C51.2107 17.12 50.7307 17.025 50.1807 17.025C49.1107 17.025 48.2657 17.33 47.6457 17.94C47.0357 18.55 46.6457 19.415 46.4757 20.535H53.4657ZM46.4007 22.77C46.4607 23.56 46.6007 24.245 46.8207 24.825C47.0407 25.395 47.3307 25.87 47.6907 26.25C48.0507 26.62 48.4757 26.9 48.9657 27.09C49.4657 27.27 50.0157 27.36 50.6157 27.36C51.2157 27.36 51.7307 27.29 52.1607 27.15C52.6007 27.01 52.9807 26.855 53.3007 26.685C53.6307 26.515 53.9157 26.36 54.1557 26.22C54.4057 26.08 54.6457 26.01 54.8757 26.01C55.1857 26.01 55.4157 26.125 55.5657 26.355L56.6307 27.705C56.2207 28.185 55.7607 28.59 55.2507 28.92C54.7407 29.24 54.2057 29.5 53.6457 29.7C53.0957 29.89 52.5307 30.025 51.9507 30.105C51.3807 30.185 50.8257 30.225 50.2857 30.225C49.2157 30.225 48.2207 30.05 47.3007 29.7C46.3807 29.34 45.5807 28.815 44.9007 28.125C44.2207 27.425 43.6857 26.565 43.2957 25.545C42.9057 24.515 42.7107 23.325 42.7107 21.975C42.7107 20.925 42.8807 19.94 43.2207 19.02C43.5607 18.09 44.0457 17.285 44.6757 16.605C45.3157 15.915 46.0907 15.37 47.0007 14.97C47.9207 14.57 48.9557 14.37 50.1057 14.37C51.0757 14.37 51.9707 14.525 52.7907 14.835C53.6107 15.145 54.3157 15.6 54.9057 16.2C55.4957 16.79 55.9557 17.52 56.2857 18.39C56.6257 19.25 56.7957 20.235 56.7957 21.345C56.7957 21.905 56.7357 22.285 56.6157 22.485C56.4957 22.675 56.2657 22.77 55.9257 22.77H46.4007ZM63.0411 16.5C63.3511 16.19 63.6761 15.905 64.0161 15.645C64.3661 15.375 64.7311 15.15 65.1111 14.97C65.5011 14.78 65.9161 14.635 66.3561 14.535C66.7961 14.425 67.2761 14.37 67.7961 14.37C68.6361 14.37 69.3811 14.515 70.0311 14.805C70.6811 15.085 71.2211 15.485 71.6511 16.005C72.0911 16.515 72.4211 17.13 72.6411 17.85C72.8711 18.56 72.9861 19.345 72.9861 20.205V30H69.2811V20.205C69.2811 19.265 69.0661 18.54 68.6361 18.03C68.2061 17.51 67.5511 17.25 66.6711 17.25C66.0311 17.25 65.4311 17.395 64.8711 17.685C64.3111 17.975 63.7811 18.37 63.2811 18.87V30H59.5761V14.61H61.8411C62.3211 14.61 62.6361 14.835 62.7861 15.285L63.0411 16.5ZM91.8296 30H88.1246V17.385H80.9846V25.725C80.9846 26.205 81.0996 26.58 81.3296 26.85C81.5696 27.12 81.8946 27.255 82.3046 27.255C82.5346 27.255 82.7246 27.23 82.8746 27.18C83.0346 27.12 83.1696 27.06 83.2796 27C83.3996 26.94 83.5046 26.885 83.5946 26.835C83.6846 26.775 83.7746 26.745 83.8646 26.745C83.9746 26.745 84.0646 26.775 84.1346 26.835C84.2046 26.885 84.2796 26.965 84.3596 27.075L85.4696 28.875C84.9296 29.325 84.3096 29.665 83.6096 29.895C82.9096 30.125 82.1846 30.24 81.4346 30.24C80.0946 30.24 79.0646 29.865 78.3446 29.115C77.6346 28.355 77.2796 27.31 77.2796 25.98V17.385H75.7046C75.5046 17.385 75.3346 17.32 75.1946 17.19C75.0546 17.06 74.9846 16.865 74.9846 16.605V15.135L77.4596 14.715L78.2396 10.53C78.2896 10.33 78.3846 10.175 78.5246 10.065C78.6646 9.955 78.8446 9.9 79.0646 9.9H80.9846V14.745H91.8296V30ZM92.4746 10.065C92.4746 10.385 92.4096 10.69 92.2796 10.98C92.1496 11.26 91.9746 11.505 91.7546 11.715C91.5446 11.925 91.2896 12.095 90.9896 12.225C90.6996 12.345 90.3896 12.405 90.0596 12.405C89.7396 12.405 89.4396 12.345 89.1596 12.225C88.8796 12.095 88.6346 11.925 88.4246 11.715C88.2146 11.505 88.0446 11.26 87.9146 10.98C87.7946 10.69 87.7346 10.385 87.7346 10.065C87.7346 9.735 87.7946 9.43 87.9146 9.15C88.0446 8.86 88.2146 8.61 88.4246 8.4C88.6346 8.18 88.8796 8.01 89.1596 7.89C89.4396 7.76 89.7396 7.695 90.0596 7.695C90.3896 7.695 90.6996 7.76 90.9896 7.89C91.2896 8.01 91.5446 8.18 91.7546 8.4C91.9746 8.61 92.1496 8.86 92.2796 9.15C92.4096 9.43 92.4746 9.735 92.4746 10.065ZM99.0763 16.5C99.3863 16.19 99.7113 15.905 100.051 15.645C100.401 15.375 100.766 15.15 101.146 14.97C101.536 14.78 101.951 14.635 102.391 14.535C102.831 14.425 103.311 14.37 103.831 14.37C104.671 14.37 105.416 14.515 106.066 14.805C106.716 15.085 107.256 15.485 107.686 16.005C108.126 16.515 108.456 17.13 108.676 17.85C108.906 18.56 109.021 19.345 109.021 20.205V30H105.316V20.205C105.316 19.265 105.101 18.54 104.671 18.03C104.241 17.51 103.586 17.25 102.706 17.25C102.066 17.25 101.466 17.395 100.906 17.685C100.346 17.975 99.8163 18.37 99.3163 18.87V30H95.6113V14.61H97.8763C98.3563 14.61 98.6713 14.835 98.8213 15.285L99.0763 16.5ZM127.84 22.29C127.84 23.51 127.69 24.61 127.39 25.59C127.09 26.57 126.64 27.405 126.04 28.095C125.45 28.785 124.71 29.315 123.82 29.685C122.93 30.055 121.895 30.24 120.715 30.24C120.175 30.24 119.645 30.205 119.125 30.135C118.605 30.075 118.06 29.975 117.49 29.835C117.52 29.435 117.555 29.035 117.595 28.635C117.635 28.235 117.67 27.835 117.7 27.435C117.73 27.215 117.815 27.04 117.955 26.91C118.105 26.77 118.315 26.7 118.585 26.7C118.755 26.7 118.975 26.735 119.245 26.805C119.525 26.875 119.875 26.91 120.295 26.91C120.865 26.91 121.37 26.83 121.81 26.67C122.25 26.5 122.615 26.235 122.905 25.875C123.205 25.515 123.43 25.05 123.58 24.48C123.73 23.9 123.805 23.2 123.805 22.38V8.31H127.84V22.29ZM139.483 23.43C138.413 23.48 137.513 23.575 136.783 23.715C136.053 23.845 135.468 24.015 135.028 24.225C134.588 24.435 134.273 24.68 134.083 24.96C133.893 25.24 133.798 25.545 133.798 25.875C133.798 26.525 133.988 26.99 134.368 27.27C134.758 27.55 135.263 27.69 135.883 27.69C136.643 27.69 137.298 27.555 137.848 27.285C138.408 27.005 138.953 26.585 139.483 26.025V23.43ZM130.993 16.755C132.763 15.135 134.893 14.325 137.383 14.325C138.283 14.325 139.088 14.475 139.798 14.775C140.508 15.065 141.108 15.475 141.598 16.005C142.088 16.525 142.458 17.15 142.708 17.88C142.968 18.61 143.098 19.41 143.098 20.28V30H141.418C141.068 30 140.798 29.95 140.608 29.85C140.418 29.74 140.268 29.525 140.158 29.205L139.828 28.095C139.438 28.445 139.058 28.755 138.688 29.025C138.318 29.285 137.933 29.505 137.533 29.685C137.133 29.865 136.703 30 136.243 30.09C135.793 30.19 135.293 30.24 134.743 30.24C134.093 30.24 133.493 30.155 132.943 29.985C132.393 29.805 131.918 29.54 131.518 29.19C131.118 28.84 130.808 28.405 130.588 27.885C130.368 27.365 130.258 26.76 130.258 26.07C130.258 25.68 130.323 25.295 130.453 24.915C130.583 24.525 130.793 24.155 131.083 23.805C131.383 23.455 131.768 23.125 132.238 22.815C132.708 22.505 133.283 22.235 133.963 22.005C134.653 21.775 135.453 21.59 136.363 21.45C137.273 21.3 138.313 21.21 139.483 21.18V20.28C139.483 19.25 139.263 18.49 138.823 18C138.383 17.5 137.748 17.25 136.918 17.25C136.318 17.25 135.818 17.32 135.418 17.46C135.028 17.6 134.683 17.76 134.383 17.94C134.083 18.11 133.808 18.265 133.558 18.405C133.318 18.545 133.048 18.615 132.748 18.615C132.488 18.615 132.268 18.55 132.088 18.42C131.908 18.28 131.763 18.12 131.653 17.94L130.993 16.755ZM157.613 17.865C157.503 18.005 157.393 18.115 157.283 18.195C157.183 18.275 157.033 18.315 156.833 18.315C156.643 18.315 156.458 18.26 156.278 18.15C156.098 18.03 155.883 17.9 155.633 17.76C155.383 17.61 155.083 17.48 154.733 17.37C154.393 17.25 153.968 17.19 153.458 17.19C152.808 17.19 152.238 17.31 151.748 17.55C151.258 17.78 150.848 18.115 150.518 18.555C150.198 18.995 149.958 19.53 149.798 20.16C149.638 20.78 149.558 21.485 149.558 22.275C149.558 23.095 149.643 23.825 149.813 24.465C149.993 25.105 150.248 25.645 150.578 26.085C150.908 26.515 151.308 26.845 151.778 27.075C152.248 27.295 152.778 27.405 153.368 27.405C153.958 27.405 154.433 27.335 154.793 27.195C155.163 27.045 155.473 26.885 155.723 26.715C155.973 26.535 156.188 26.375 156.368 26.235C156.558 26.085 156.768 26.01 156.998 26.01C157.298 26.01 157.523 26.125 157.673 26.355L158.738 27.705C158.328 28.185 157.883 28.59 157.403 28.92C156.923 29.24 156.423 29.5 155.903 29.7C155.393 29.89 154.863 30.025 154.313 30.105C153.773 30.185 153.233 30.225 152.693 30.225C151.743 30.225 150.848 30.05 150.008 29.7C149.168 29.34 148.433 28.82 147.803 28.14C147.173 27.46 146.673 26.63 146.303 25.65C145.943 24.66 145.763 23.535 145.763 22.275C145.763 21.145 145.923 20.1 146.243 19.14C146.573 18.17 147.053 17.335 147.683 16.635C148.313 15.925 149.093 15.37 150.023 14.97C150.953 14.57 152.023 14.37 153.233 14.37C154.383 14.37 155.388 14.555 156.248 14.925C157.118 15.295 157.898 15.825 158.588 16.515L157.613 17.865ZM167.607 14.37C168.747 14.37 169.782 14.555 170.712 14.925C171.652 15.295 172.452 15.82 173.112 16.5C173.782 17.18 174.297 18.01 174.657 18.99C175.017 19.97 175.197 21.065 175.197 22.275C175.197 23.495 175.017 24.595 174.657 25.575C174.297 26.555 173.782 27.39 173.112 28.08C172.452 28.77 171.652 29.3 170.712 29.67C169.782 30.04 168.747 30.225 167.607 30.225C166.457 30.225 165.412 30.04 164.472 29.67C163.532 29.3 162.727 28.77 162.057 28.08C161.397 27.39 160.882 26.555 160.512 25.575C160.152 24.595 159.972 23.495 159.972 22.275C159.972 21.065 160.152 19.97 160.512 18.99C160.882 18.01 161.397 17.18 162.057 16.5C162.727 15.82 163.532 15.295 164.472 14.925C165.412 14.555 166.457 14.37 167.607 14.37ZM167.607 27.375C168.887 27.375 169.832 26.945 170.442 26.085C171.062 25.225 171.372 23.965 171.372 22.305C171.372 20.645 171.062 19.38 170.442 18.51C169.832 17.64 168.887 17.205 167.607 17.205C166.307 17.205 165.342 17.645 164.712 18.525C164.092 19.395 163.782 20.655 163.782 22.305C163.782 23.955 164.092 25.215 164.712 26.085C165.342 26.945 166.307 27.375 167.607 27.375ZM178.723 30V17.4L177.388 17.19C177.098 17.13 176.863 17.03 176.683 16.89C176.513 16.74 176.428 16.53 176.428 16.26V14.745H178.723V13.605C178.723 12.725 178.853 11.935 179.113 11.235C179.383 10.535 179.763 9.94 180.253 9.45C180.753 8.96 181.358 8.585 182.068 8.325C182.778 8.065 183.578 7.935 184.468 7.935C185.178 7.935 185.838 8.03 186.448 8.22L186.373 10.08C186.363 10.22 186.323 10.335 186.253 10.425C186.183 10.505 186.088 10.57 185.968 10.62C185.858 10.66 185.728 10.69 185.578 10.71C185.428 10.72 185.268 10.725 185.098 10.725C184.658 10.725 184.263 10.775 183.913 10.875C183.573 10.965 183.283 11.13 183.043 11.37C182.803 11.6 182.618 11.91 182.488 12.3C182.368 12.68 182.308 13.155 182.308 13.725V14.745H186.313V17.385H182.428V30H178.723ZM197.784 17.61C197.684 17.77 197.579 17.885 197.469 17.955C197.359 18.015 197.219 18.045 197.049 18.045C196.869 18.045 196.674 17.995 196.464 17.895C196.264 17.795 196.029 17.685 195.759 17.565C195.489 17.435 195.179 17.32 194.829 17.22C194.489 17.12 194.084 17.07 193.614 17.07C192.884 17.07 192.309 17.225 191.889 17.535C191.479 17.845 191.274 18.25 191.274 18.75C191.274 19.08 191.379 19.36 191.589 19.59C191.809 19.81 192.094 20.005 192.444 20.175C192.804 20.345 193.209 20.5 193.659 20.64C194.109 20.77 194.564 20.915 195.024 21.075C195.494 21.235 195.954 21.42 196.404 21.63C196.854 21.83 197.254 22.09 197.604 22.41C197.964 22.72 198.249 23.095 198.459 23.535C198.679 23.975 198.789 24.505 198.789 25.125C198.789 25.865 198.654 26.55 198.384 27.18C198.124 27.8 197.734 28.34 197.214 28.8C196.694 29.25 196.049 29.605 195.279 29.865C194.519 30.115 193.639 30.24 192.639 30.24C192.109 30.24 191.589 30.19 191.079 30.09C190.579 30 190.094 29.87 189.624 29.7C189.164 29.53 188.734 29.33 188.334 29.1C187.944 28.87 187.599 28.62 187.299 28.35L188.154 26.94C188.264 26.77 188.394 26.64 188.544 26.55C188.694 26.46 188.884 26.415 189.114 26.415C189.344 26.415 189.559 26.48 189.759 26.61C189.969 26.74 190.209 26.88 190.479 27.03C190.749 27.18 191.064 27.32 191.424 27.45C191.794 27.58 192.259 27.645 192.819 27.645C193.259 27.645 193.634 27.595 193.944 27.495C194.264 27.385 194.524 27.245 194.724 27.075C194.934 26.905 195.084 26.71 195.174 26.49C195.274 26.26 195.324 26.025 195.324 25.785C195.324 25.425 195.214 25.13 194.994 24.9C194.784 24.67 194.499 24.47 194.139 24.3C193.789 24.13 193.384 23.98 192.924 23.85C192.474 23.71 192.009 23.56 191.529 23.4C191.059 23.24 190.594 23.055 190.134 22.845C189.684 22.625 189.279 22.35 188.919 22.02C188.569 21.69 188.284 21.285 188.064 20.805C187.854 20.325 187.749 19.745 187.749 19.065C187.749 18.435 187.874 17.835 188.124 17.265C188.374 16.695 188.739 16.2 189.219 15.78C189.709 15.35 190.314 15.01 191.034 14.76C191.764 14.5 192.604 14.37 193.554 14.37C194.614 14.37 195.579 14.545 196.449 14.895C197.319 15.245 198.044 15.705 198.624 16.275L197.784 17.61ZM205.283 7.71V20.475H205.973C206.223 20.475 206.418 20.445 206.558 20.385C206.708 20.315 206.858 20.18 207.008 19.98L210.833 15.255C210.993 15.045 211.168 14.885 211.358 14.775C211.558 14.665 211.813 14.61 212.123 14.61H215.513L210.728 20.325C210.388 20.775 210.018 21.12 209.618 21.36C209.828 21.51 210.013 21.685 210.173 21.885C210.343 22.085 210.503 22.3 210.653 22.53L215.783 30H212.438C212.148 30 211.898 29.955 211.688 29.865C211.478 29.765 211.303 29.59 211.163 29.34L207.233 23.505C207.093 23.275 206.948 23.125 206.798 23.055C206.648 22.985 206.423 22.95 206.123 22.95H205.283V30H201.578V7.71H205.283ZM231.583 14.61L223.198 34.23C223.088 34.49 222.943 34.685 222.763 34.815C222.593 34.955 222.328 35.025 221.968 35.025H219.208L222.088 28.845L215.863 14.61H219.118C219.408 14.61 219.633 14.68 219.793 14.82C219.963 14.96 220.088 15.12 220.168 15.3L223.438 23.28C223.548 23.55 223.638 23.82 223.708 24.09C223.788 24.36 223.863 24.635 223.933 24.915C224.023 24.635 224.113 24.36 224.203 24.09C224.293 23.81 224.393 23.535 224.503 23.265L227.593 15.3C227.673 15.1 227.803 14.935 227.983 14.805C228.173 14.675 228.383 14.61 228.613 14.61H231.583Z" fill="white"/>
<line x1="16" y1="47.5" x2="3" y2="47.5" stroke="#0ACF83" stroke-width="5" stroke-linecap="round"/>
</svg>
