<svg width="160" height="43" viewBox="0 0 160 43" fill="none" xmlns="http://www.w3.org/2000/svg">
<path d="M33.56 34.216C33.56 35.064 33.4187 35.8427 33.136 36.552C32.8533 37.2613 32.456 37.872 31.944 38.384C31.432 38.896 30.816 39.2933 30.096 39.576C29.376 39.8587 28.576 40 27.696 40H23.288V28.432H27.696C28.576 28.432 29.376 28.576 30.096 28.864C30.816 29.1467 31.432 29.544 31.944 30.056C32.456 30.5627 32.8533 31.1707 33.136 31.88C33.4187 32.5893 33.56 33.368 33.56 34.216ZM31.352 34.216C31.352 33.5813 31.2667 33.0133 31.096 32.512C30.9307 32.0053 30.688 31.5787 30.368 31.232C30.0533 30.88 29.6693 30.6107 29.216 30.424C28.768 30.2373 28.2613 30.144 27.696 30.144H25.448V38.288H27.696C28.2613 38.288 28.768 38.1947 29.216 38.008C29.6693 37.8213 30.0533 37.5547 30.368 37.208C30.688 36.856 30.9307 36.4293 31.096 35.928C31.2667 35.4213 31.352 34.8507 31.352 34.216ZM40.3265 34.952C40.3265 34.696 40.2892 34.456 40.2145 34.232C40.1452 34.0027 40.0385 33.8027 39.8945 33.632C39.7505 33.4613 39.5665 33.328 39.3425 33.232C39.1238 33.1307 38.8678 33.08 38.5745 33.08C38.0038 33.08 37.5532 33.2427 37.2225 33.568C36.8972 33.8933 36.6892 34.3547 36.5985 34.952H40.3265ZM36.5585 36.144C36.5905 36.5653 36.6652 36.9307 36.7825 37.24C36.8998 37.544 37.0545 37.7973 37.2465 38C37.4385 38.1973 37.6652 38.3467 37.9265 38.448C38.1932 38.544 38.4865 38.592 38.8065 38.592C39.1265 38.592 39.4012 38.5547 39.6305 38.48C39.8652 38.4053 40.0678 38.3227 40.2385 38.232C40.4145 38.1413 40.5665 38.0587 40.6945 37.984C40.8278 37.9093 40.9558 37.872 41.0785 37.872C41.2438 37.872 41.3665 37.9333 41.4465 38.056L42.0145 38.776C41.7958 39.032 41.5505 39.248 41.2785 39.424C41.0065 39.5947 40.7212 39.7333 40.4225 39.84C40.1292 39.9413 39.8278 40.0133 39.5185 40.056C39.2145 40.0987 38.9185 40.12 38.6305 40.12C38.0598 40.12 37.5292 40.0267 37.0385 39.84C36.5478 39.648 36.1212 39.368 35.7585 39C35.3958 38.6267 35.1105 38.168 34.9025 37.624C34.6945 37.0747 34.5905 36.44 34.5905 35.72C34.5905 35.16 34.6812 34.6347 34.8625 34.144C35.0438 33.648 35.3025 33.2187 35.6385 32.856C35.9798 32.488 36.3932 32.1973 36.8785 31.984C37.3692 31.7707 37.9212 31.664 38.5345 31.664C39.0518 31.664 39.5292 31.7467 39.9665 31.912C40.4038 32.0773 40.7798 32.32 41.0945 32.64C41.4092 32.9547 41.6545 33.344 41.8305 33.808C42.0118 34.2667 42.1025 34.792 42.1025 35.384C42.1025 35.6827 42.0705 35.8853 42.0065 35.992C41.9425 36.0933 41.8198 36.144 41.6385 36.144H36.5585ZM50.7823 31.792L47.5263 40H45.7343L42.4783 31.792H44.1103C44.2596 31.792 44.3823 31.8267 44.4783 31.896C44.5796 31.9653 44.6463 32.0533 44.6783 32.16L46.2623 36.544C46.3476 36.8 46.4223 37.0507 46.4863 37.296C46.5503 37.5413 46.6063 37.7867 46.6543 38.032C46.7076 37.7867 46.7663 37.5413 46.8303 37.296C46.8943 37.0507 46.9716 36.8 47.0623 36.544L48.6783 32.16C48.7156 32.0533 48.7823 31.9653 48.8783 31.896C48.9743 31.8267 49.0889 31.792 49.2223 31.792H50.7823ZM56.8734 34.952C56.8734 34.696 56.836 34.456 56.7614 34.232C56.692 34.0027 56.5854 33.8027 56.4414 33.632C56.2974 33.4613 56.1134 33.328 55.8894 33.232C55.6707 33.1307 55.4147 33.08 55.1214 33.08C54.5507 33.08 54.1 33.2427 53.7694 33.568C53.444 33.8933 53.236 34.3547 53.1454 34.952H56.8734ZM53.1054 36.144C53.1374 36.5653 53.212 36.9307 53.3294 37.24C53.4467 37.544 53.6014 37.7973 53.7934 38C53.9854 38.1973 54.212 38.3467 54.4734 38.448C54.74 38.544 55.0334 38.592 55.3534 38.592C55.6734 38.592 55.948 38.5547 56.1774 38.48C56.412 38.4053 56.6147 38.3227 56.7854 38.232C56.9614 38.1413 57.1134 38.0587 57.2414 37.984C57.3747 37.9093 57.5027 37.872 57.6254 37.872C57.7907 37.872 57.9134 37.9333 57.9934 38.056L58.5614 38.776C58.3427 39.032 58.0974 39.248 57.8254 39.424C57.5534 39.5947 57.268 39.7333 56.9694 39.84C56.676 39.9413 56.3747 40.0133 56.0654 40.056C55.7614 40.0987 55.4654 40.12 55.1774 40.12C54.6067 40.12 54.076 40.0267 53.5854 39.84C53.0947 39.648 52.668 39.368 52.3054 39C51.9427 38.6267 51.6574 38.168 51.4494 37.624C51.2414 37.0747 51.1374 36.44 51.1374 35.72C51.1374 35.16 51.228 34.6347 51.4094 34.144C51.5907 33.648 51.8494 33.2187 52.1854 32.856C52.5267 32.488 52.94 32.1973 53.4254 31.984C53.916 31.7707 54.468 31.664 55.0814 31.664C55.5987 31.664 56.076 31.7467 56.5134 31.912C56.9507 32.0773 57.3267 32.32 57.6414 32.64C57.956 32.9547 58.2014 33.344 58.3774 33.808C58.5587 34.2667 58.6494 34.792 58.6494 35.384C58.6494 35.6827 58.6174 35.8853 58.5534 35.992C58.4894 36.0933 58.3667 36.144 58.1854 36.144H53.1054ZM62.1323 28.112V40H60.1562V28.112H62.1323ZM67.733 31.664C68.341 31.664 68.893 31.7627 69.389 31.96C69.8903 32.1573 70.317 32.4373 70.669 32.8C71.0263 33.1627 71.301 33.6053 71.493 34.128C71.685 34.6507 71.781 35.2347 71.781 35.88C71.781 36.5307 71.685 37.1173 71.493 37.64C71.301 38.1627 71.0263 38.608 70.669 38.976C70.317 39.344 69.8903 39.6267 69.389 39.824C68.893 40.0213 68.341 40.12 67.733 40.12C67.1197 40.12 66.5623 40.0213 66.061 39.824C65.5597 39.6267 65.1303 39.344 64.773 38.976C64.421 38.608 64.1463 38.1627 63.949 37.64C63.757 37.1173 63.661 36.5307 63.661 35.88C63.661 35.2347 63.757 34.6507 63.949 34.128C64.1463 33.6053 64.421 33.1627 64.773 32.8C65.1303 32.4373 65.5597 32.1573 66.061 31.96C66.5623 31.7627 67.1197 31.664 67.733 31.664ZM67.733 38.6C68.4157 38.6 68.9197 38.3707 69.245 37.912C69.5757 37.4533 69.741 36.7813 69.741 35.896C69.741 35.0107 69.5757 34.336 69.245 33.872C68.9197 33.408 68.4157 33.176 67.733 33.176C67.0397 33.176 66.525 33.4107 66.189 33.88C65.8583 34.344 65.693 35.016 65.693 35.896C65.693 36.776 65.8583 37.448 66.189 37.912C66.525 38.3707 67.0397 38.6 67.733 38.6ZM75.2645 37.872C75.4885 38.144 75.7312 38.336 75.9925 38.448C76.2592 38.56 76.5472 38.616 76.8565 38.616C77.1552 38.616 77.4245 38.56 77.6645 38.448C77.9045 38.336 78.1072 38.1653 78.2725 37.936C78.4432 37.7067 78.5738 37.4187 78.6645 37.072C78.7552 36.72 78.8005 36.3067 78.8005 35.832C78.8005 35.352 78.7605 34.9467 78.6805 34.616C78.6058 34.28 78.4965 34.008 78.3525 33.8C78.2085 33.592 78.0325 33.44 77.8245 33.344C77.6218 33.248 77.3898 33.2 77.1285 33.2C76.7178 33.2 76.3685 33.288 76.0805 33.464C75.7925 33.6347 75.5205 33.8773 75.2645 34.192V37.872ZM75.1605 32.912C75.4965 32.5333 75.8778 32.2267 76.3045 31.992C76.7312 31.7573 77.2325 31.64 77.8085 31.64C78.2565 31.64 78.6645 31.7333 79.0325 31.92C79.4058 32.1067 79.7258 32.3787 79.9925 32.736C80.2645 33.088 80.4725 33.5253 80.6165 34.048C80.7658 34.5653 80.8405 35.16 80.8405 35.832C80.8405 36.4453 80.7578 37.0133 80.5925 37.536C80.4272 38.0587 80.1898 38.512 79.8805 38.896C79.5765 39.28 79.2058 39.5813 78.7685 39.8C78.3365 40.0133 77.8512 40.12 77.3125 40.12C76.8538 40.12 76.4618 40.0507 76.1365 39.912C75.8112 39.768 75.5205 39.5707 75.2645 39.32V42.68H73.2885V31.792H74.4965C74.7525 31.792 74.9205 31.912 75.0005 32.152L75.1605 32.912ZM87.6703 34.952C87.6703 34.696 87.6329 34.456 87.5583 34.232C87.4889 34.0027 87.3823 33.8027 87.2383 33.632C87.0943 33.4613 86.9103 33.328 86.6863 33.232C86.4676 33.1307 86.2116 33.08 85.9183 33.08C85.3476 33.08 84.8969 33.2427 84.5663 33.568C84.2409 33.8933 84.0329 34.3547 83.9423 34.952H87.6703ZM83.9023 36.144C83.9343 36.5653 84.0089 36.9307 84.1263 37.24C84.2436 37.544 84.3983 37.7973 84.5903 38C84.7823 38.1973 85.0089 38.3467 85.2703 38.448C85.5369 38.544 85.8303 38.592 86.1503 38.592C86.4703 38.592 86.7449 38.5547 86.9743 38.48C87.2089 38.4053 87.4116 38.3227 87.5823 38.232C87.7583 38.1413 87.9103 38.0587 88.0383 37.984C88.1716 37.9093 88.2996 37.872 88.4223 37.872C88.5876 37.872 88.7103 37.9333 88.7903 38.056L89.3583 38.776C89.1396 39.032 88.8943 39.248 88.6223 39.424C88.3503 39.5947 88.0649 39.7333 87.7663 39.84C87.4729 39.9413 87.1716 40.0133 86.8623 40.056C86.5583 40.0987 86.2623 40.12 85.9743 40.12C85.4036 40.12 84.8729 40.0267 84.3823 39.84C83.8916 39.648 83.4649 39.368 83.1023 39C82.7396 38.6267 82.4543 38.168 82.2463 37.624C82.0383 37.0747 81.9342 36.44 81.9342 35.72C81.9342 35.16 82.0249 34.6347 82.2063 34.144C82.3876 33.648 82.6463 33.2187 82.9823 32.856C83.3236 32.488 83.7369 32.1973 84.2223 31.984C84.7129 31.7707 85.2649 31.664 85.8783 31.664C86.3956 31.664 86.8729 31.7467 87.3103 31.912C87.7476 32.0773 88.1236 32.32 88.4383 32.64C88.7529 32.9547 88.9983 33.344 89.1743 33.808C89.3556 34.2667 89.4462 34.792 89.4462 35.384C89.4462 35.6827 89.4143 35.8853 89.3503 35.992C89.2863 36.0933 89.1636 36.144 88.9823 36.144H83.9023ZM92.7931 33.216C93.0491 32.7253 93.3531 32.3413 93.7051 32.064C94.0571 31.7813 94.4731 31.64 94.9531 31.64C95.3318 31.64 95.6358 31.7227 95.8651 31.888L95.7371 33.368C95.7105 33.464 95.6705 33.5333 95.6171 33.576C95.5691 33.6133 95.5025 33.632 95.4171 33.632C95.3371 33.632 95.2171 33.6187 95.0571 33.592C94.9025 33.5653 94.7505 33.552 94.6011 33.552C94.3825 33.552 94.1878 33.584 94.0171 33.648C93.8465 33.712 93.6918 33.8053 93.5531 33.928C93.4198 34.0453 93.2998 34.1893 93.1931 34.36C93.0918 34.5307 92.9958 34.7253 92.9051 34.944V40H90.9291V31.792H92.0891C92.2918 31.792 92.4331 31.8293 92.5131 31.904C92.5931 31.9733 92.6465 32.1013 92.6731 32.288L92.7931 33.216ZM101.021 40V33.28L100.309 33.168C100.154 33.136 100.029 33.0827 99.9328 33.008C99.8421 32.928 99.7968 32.816 99.7968 32.672V31.864H101.021V31.256C101.021 30.7867 101.09 30.3653 101.229 29.992C101.373 29.6187 101.575 29.3013 101.837 29.04C102.103 28.7787 102.426 28.5787 102.805 28.44C103.183 28.3013 103.61 28.232 104.085 28.232C104.463 28.232 104.815 28.2827 105.141 28.384L105.101 29.376C105.095 29.4507 105.074 29.512 105.037 29.56C104.999 29.6027 104.949 29.6373 104.885 29.664C104.826 29.6853 104.757 29.7013 104.677 29.712C104.597 29.7173 104.511 29.72 104.421 29.72C104.186 29.72 103.975 29.7467 103.789 29.8C103.607 29.848 103.453 29.936 103.325 30.064C103.197 30.1867 103.098 30.352 103.029 30.56C102.965 30.7627 102.933 31.016 102.933 31.32V31.864H105.069V33.272H102.997V40H101.021ZM113.251 31.792V40H112.043C111.782 40 111.616 39.88 111.547 39.64L111.411 38.984C111.075 39.3253 110.704 39.6027 110.299 39.816C109.894 40.024 109.416 40.128 108.867 40.128C108.419 40.128 108.022 40.0533 107.675 39.904C107.334 39.7493 107.046 39.5333 106.811 39.256C106.576 38.9787 106.398 38.6507 106.275 38.272C106.158 37.888 106.099 37.4667 106.099 37.008V31.792H108.075V37.008C108.075 37.5093 108.19 37.8987 108.419 38.176C108.654 38.448 109.003 38.584 109.467 38.584C109.808 38.584 110.128 38.5093 110.427 38.36C110.726 38.2053 111.008 37.9947 111.275 37.728V31.792H113.251ZM117.21 28.112V40H115.234V28.112H117.21ZM121.179 28.112V40H119.203V28.112H121.179ZM128.156 33.392C128.103 33.4773 128.047 33.5387 127.988 33.576C127.929 33.608 127.855 33.624 127.764 33.624C127.668 33.624 127.564 33.5973 127.452 33.544C127.345 33.4907 127.22 33.432 127.076 33.368C126.932 33.2987 126.767 33.2373 126.58 33.184C126.399 33.1307 126.183 33.104 125.932 33.104C125.543 33.104 125.236 33.1867 125.012 33.352C124.793 33.5173 124.684 33.7333 124.684 34C124.684 34.176 124.74 34.3253 124.852 34.448C124.969 34.5653 125.121 34.6693 125.308 34.76C125.5 34.8507 125.716 34.9333 125.956 35.008C126.196 35.0773 126.439 35.1547 126.684 35.24C126.935 35.3253 127.18 35.424 127.42 35.536C127.66 35.6427 127.873 35.7813 128.06 35.952C128.252 36.1173 128.404 36.3173 128.516 36.552C128.633 36.7867 128.692 37.0693 128.692 37.4C128.692 37.7947 128.62 38.16 128.476 38.496C128.337 38.8267 128.129 39.1147 127.852 39.36C127.575 39.6 127.231 39.7893 126.82 39.928C126.415 40.0613 125.945 40.128 125.412 40.128C125.129 40.128 124.852 40.1013 124.58 40.048C124.313 40 124.055 39.9307 123.804 39.84C123.559 39.7493 123.329 39.6427 123.116 39.52C122.908 39.3973 122.724 39.264 122.564 39.12L123.02 38.368C123.079 38.2773 123.148 38.208 123.228 38.16C123.308 38.112 123.409 38.088 123.532 38.088C123.655 38.088 123.769 38.1227 123.876 38.192C123.988 38.2613 124.116 38.336 124.26 38.416C124.404 38.496 124.572 38.5707 124.764 38.64C124.961 38.7093 125.209 38.744 125.508 38.744C125.743 38.744 125.943 38.7173 126.108 38.664C126.279 38.6053 126.417 38.5307 126.524 38.44C126.636 38.3493 126.716 38.2453 126.764 38.128C126.817 38.0053 126.844 37.88 126.844 37.752C126.844 37.56 126.785 37.4027 126.668 37.28C126.556 37.1573 126.404 37.0507 126.212 36.96C126.025 36.8693 125.809 36.7893 125.564 36.72C125.324 36.6453 125.076 36.5653 124.82 36.48C124.569 36.3947 124.321 36.296 124.076 36.184C123.836 36.0667 123.62 35.92 123.428 35.744C123.241 35.568 123.089 35.352 122.972 35.096C122.86 34.84 122.804 34.5307 122.804 34.168C122.804 33.832 122.871 33.512 123.004 33.208C123.137 32.904 123.332 32.64 123.588 32.416C123.849 32.1867 124.172 32.0053 124.556 31.872C124.945 31.7333 125.393 31.664 125.9 31.664C126.465 31.664 126.98 31.7573 127.444 31.944C127.908 32.1307 128.295 32.376 128.604 32.68L128.156 33.392ZM132.915 40.128C132.2 40.128 131.651 39.928 131.267 39.528C130.888 39.1227 130.699 38.5653 130.699 37.856V33.272H129.859C129.752 33.272 129.662 33.2373 129.587 33.168C129.512 33.0987 129.475 32.9947 129.475 32.856V32.072L130.795 31.856L131.211 29.616C131.238 29.5093 131.288 29.4267 131.363 29.368C131.438 29.3093 131.534 29.28 131.651 29.28H132.675V31.864H134.867V33.272H132.675V37.72C132.675 37.976 132.736 38.176 132.859 38.32C132.987 38.464 133.16 38.536 133.379 38.536C133.502 38.536 133.603 38.5227 133.683 38.496C133.768 38.464 133.84 38.432 133.899 38.4C133.963 38.368 134.019 38.3387 134.067 38.312C134.115 38.28 134.163 38.264 134.211 38.264C134.27 38.264 134.318 38.28 134.355 38.312C134.392 38.3387 134.432 38.3813 134.475 38.44L135.067 39.4C134.779 39.64 134.448 39.8213 134.075 39.944C133.702 40.0667 133.315 40.128 132.915 40.128ZM140.468 36.496C139.898 36.5227 139.418 36.5733 139.028 36.648C138.639 36.7173 138.327 36.808 138.092 36.92C137.858 37.032 137.69 37.1627 137.588 37.312C137.487 37.4613 137.436 37.624 137.436 37.8C137.436 38.1467 137.538 38.3947 137.74 38.544C137.948 38.6933 138.218 38.768 138.548 38.768C138.954 38.768 139.303 38.696 139.596 38.552C139.895 38.4027 140.186 38.1787 140.468 37.88V36.496ZM135.94 32.936C136.884 32.072 138.02 31.64 139.348 31.64C139.828 31.64 140.258 31.72 140.636 31.88C141.015 32.0347 141.335 32.2533 141.596 32.536C141.858 32.8133 142.055 33.1467 142.188 33.536C142.327 33.9253 142.396 34.352 142.396 34.816V40H141.5C141.314 40 141.17 39.9733 141.068 39.92C140.967 39.8613 140.887 39.7467 140.828 39.576L140.652 38.984C140.444 39.1707 140.242 39.336 140.044 39.48C139.847 39.6187 139.642 39.736 139.428 39.832C139.215 39.928 138.986 40 138.74 40.048C138.5 40.1013 138.234 40.128 137.94 40.128C137.594 40.128 137.274 40.0827 136.98 39.992C136.687 39.896 136.434 39.7547 136.22 39.568C136.007 39.3813 135.842 39.1493 135.724 38.872C135.607 38.5947 135.548 38.272 135.548 37.904C135.548 37.696 135.583 37.4907 135.652 37.288C135.722 37.08 135.834 36.8827 135.988 36.696C136.148 36.5093 136.354 36.3333 136.604 36.168C136.855 36.0027 137.162 35.8587 137.524 35.736C137.892 35.6133 138.319 35.5147 138.804 35.44C139.29 35.36 139.844 35.312 140.468 35.296V34.816C140.468 34.2667 140.351 33.8613 140.116 33.6C139.882 33.3333 139.543 33.2 139.1 33.2C138.78 33.2 138.514 33.2373 138.3 33.312C138.092 33.3867 137.908 33.472 137.748 33.568C137.588 33.6587 137.442 33.7413 137.308 33.816C137.18 33.8907 137.036 33.928 136.876 33.928C136.738 33.928 136.62 33.8933 136.524 33.824C136.428 33.7493 136.351 33.664 136.292 33.568L135.94 32.936ZM150.137 33.528C150.079 33.6027 150.02 33.6613 149.961 33.704C149.908 33.7467 149.828 33.768 149.721 33.768C149.62 33.768 149.521 33.7387 149.425 33.68C149.329 33.616 149.215 33.5467 149.081 33.472C148.948 33.392 148.788 33.3227 148.601 33.264C148.42 33.2 148.193 33.168 147.921 33.168C147.575 33.168 147.271 33.232 147.009 33.36C146.748 33.4827 146.529 33.6613 146.353 33.896C146.183 34.1307 146.055 34.416 145.969 34.752C145.884 35.0827 145.841 35.4587 145.841 35.88C145.841 36.3173 145.887 36.7067 145.977 37.048C146.073 37.3893 146.209 37.6773 146.385 37.912C146.561 38.1413 146.775 38.3173 147.025 38.44C147.276 38.5573 147.559 38.616 147.873 38.616C148.188 38.616 148.441 38.5787 148.633 38.504C148.831 38.424 148.996 38.3387 149.129 38.248C149.263 38.152 149.377 38.0667 149.473 37.992C149.575 37.912 149.687 37.872 149.809 37.872C149.969 37.872 150.089 37.9333 150.169 38.056L150.737 38.776C150.519 39.032 150.281 39.248 150.025 39.424C149.769 39.5947 149.503 39.7333 149.225 39.84C148.953 39.9413 148.671 40.0133 148.377 40.056C148.089 40.0987 147.801 40.12 147.513 40.12C147.007 40.12 146.529 40.0267 146.081 39.84C145.633 39.648 145.241 39.3707 144.905 39.008C144.569 38.6453 144.303 38.2027 144.105 37.68C143.913 37.152 143.817 36.552 143.817 35.88C143.817 35.2773 143.903 34.72 144.073 34.208C144.249 33.6907 144.505 33.2453 144.841 32.872C145.177 32.4933 145.593 32.1973 146.089 31.984C146.585 31.7707 147.156 31.664 147.801 31.664C148.415 31.664 148.951 31.7627 149.409 31.96C149.873 32.1573 150.289 32.44 150.657 32.808L150.137 33.528ZM153.952 28.112V34.92H154.32C154.453 34.92 154.557 34.904 154.632 34.872C154.712 34.8347 154.792 34.7627 154.872 34.656L156.912 32.136C156.997 32.024 157.091 31.9387 157.192 31.88C157.299 31.8213 157.435 31.792 157.6 31.792H159.408L156.856 34.84C156.675 35.08 156.477 35.264 156.264 35.392C156.376 35.472 156.475 35.5653 156.56 35.672C156.651 35.7787 156.736 35.8933 156.816 36.016L159.552 40H157.768C157.613 40 157.48 39.976 157.368 39.928C157.256 39.8747 157.163 39.7813 157.088 39.648L154.992 36.536C154.917 36.4133 154.84 36.3333 154.76 36.296C154.68 36.2587 154.56 36.24 154.4 36.24H153.952V40H151.976V28.112H153.952Z" fill="#0ACF83"/>
<path d="M15 5.54L9.16 20H6.73L0.89 5.54H3.05C3.28333 5.54 3.47333 5.59667 3.62 5.71C3.76667 5.82333 3.87667 5.97 3.95 6.15L7.36 14.97C7.47333 15.2567 7.58 15.5733 7.68 15.92C7.78667 16.26 7.88667 16.6167 7.98 16.99C8.06 16.6167 8.14667 16.26 8.24 15.92C8.33333 15.5733 8.43667 15.2567 8.55 14.97L11.94 6.15C11.9933 5.99667 12.0967 5.85667 12.25 5.73C12.41 5.60333 12.6033 5.54 12.83 5.54H15ZM20.0033 15.62C19.2899 15.6533 18.6899 15.7167 18.2033 15.81C17.7166 15.8967 17.3266 16.01 17.0333 16.15C16.7399 16.29 16.5299 16.4533 16.4033 16.64C16.2766 16.8267 16.2133 17.03 16.2133 17.25C16.2133 17.6833 16.3399 17.9933 16.5933 18.18C16.8533 18.3667 17.1899 18.46 17.6033 18.46C18.1099 18.46 18.5466 18.37 18.9133 18.19C19.2866 18.0033 19.6499 17.7233 20.0033 17.35V15.62ZM14.3433 11.17C15.5233 10.09 16.9433 9.55 18.6033 9.55C19.2033 9.55 19.7399 9.65 20.2133 9.85C20.6866 10.0433 21.0866 10.3167 21.4133 10.67C21.7399 11.0167 21.9866 11.4333 22.1533 11.92C22.3266 12.4067 22.4133 12.94 22.4133 13.52V20H21.2933C21.0599 20 20.8799 19.9667 20.7533 19.9C20.6266 19.8267 20.5266 19.6833 20.4533 19.47L20.2333 18.73C19.9733 18.9633 19.7199 19.17 19.4733 19.35C19.2266 19.5233 18.9699 19.67 18.7033 19.79C18.4366 19.91 18.1499 20 17.8433 20.06C17.5433 20.1267 17.2099 20.16 16.8433 20.16C16.4099 20.16 16.0099 20.1033 15.6433 19.99C15.2766 19.87 14.9599 19.6933 14.6933 19.46C14.4266 19.2267 14.2199 18.9367 14.0733 18.59C13.9266 18.2433 13.8533 17.84 13.8533 17.38C13.8533 17.12 13.8966 16.8633 13.9833 16.61C14.0699 16.35 14.2099 16.1033 14.4033 15.87C14.6033 15.6367 14.8599 15.4167 15.1733 15.21C15.4866 15.0033 15.8699 14.8233 16.3233 14.67C16.7833 14.5167 17.3166 14.3933 17.9233 14.3C18.5299 14.2 19.2233 14.14 20.0033 14.12V13.52C20.0033 12.8333 19.8566 12.3267 19.5633 12C19.2699 11.6667 18.8466 11.5 18.2933 11.5C17.8933 11.5 17.5599 11.5467 17.2933 11.64C17.0333 11.7333 16.8033 11.84 16.6033 11.96C16.4033 12.0733 16.2199 12.1767 16.0533 12.27C15.8933 12.3633 15.7133 12.41 15.5133 12.41C15.3399 12.41 15.1933 12.3667 15.0733 12.28C14.9533 12.1867 14.8566 12.08 14.7833 11.96L14.3433 11.17ZM27.2395 5.14V20H24.7695V5.14H27.2395ZM36.3105 13.69C36.3105 13.37 36.2638 13.07 36.1705 12.79C36.0838 12.5033 35.9505 12.2533 35.7705 12.04C35.5905 11.8267 35.3605 11.66 35.0805 11.54C34.8071 11.4133 34.4871 11.35 34.1205 11.35C33.4071 11.35 32.8438 11.5533 32.4305 11.96C32.0238 12.3667 31.7638 12.9433 31.6505 13.69H36.3105ZM31.6005 15.18C31.6405 15.7067 31.7338 16.1633 31.8805 16.55C32.0271 16.93 32.2205 17.2467 32.4605 17.5C32.7005 17.7467 32.9838 17.9333 33.3105 18.06C33.6438 18.18 34.0105 18.24 34.4105 18.24C34.8105 18.24 35.1538 18.1933 35.4405 18.1C35.7338 18.0067 35.9871 17.9033 36.2005 17.79C36.4205 17.6767 36.6105 17.5733 36.7705 17.48C36.9371 17.3867 37.0971 17.34 37.2505 17.34C37.4571 17.34 37.6105 17.4167 37.7105 17.57L38.4205 18.47C38.1471 18.79 37.8405 19.06 37.5005 19.28C37.1605 19.4933 36.8038 19.6667 36.4305 19.8C36.0638 19.9267 35.6871 20.0167 35.3005 20.07C34.9205 20.1233 34.5505 20.15 34.1905 20.15C33.4771 20.15 32.8138 20.0333 32.2005 19.8C31.5871 19.56 31.0538 19.21 30.6005 18.75C30.1471 18.2833 29.7905 17.71 29.5305 17.03C29.2705 16.3433 29.1405 15.55 29.1405 14.65C29.1405 13.95 29.2538 13.2933 29.4805 12.68C29.7071 12.06 30.0305 11.5233 30.4505 11.07C30.8771 10.61 31.3938 10.2467 32.0005 9.98C32.6138 9.71333 33.3038 9.58 34.0705 9.58C34.7171 9.58 35.3138 9.68333 35.8605 9.89C36.4071 10.0967 36.8771 10.4 37.2705 10.8C37.6638 11.1933 37.9705 11.68 38.1905 12.26C38.4171 12.8333 38.5305 13.49 38.5305 14.23C38.5305 14.6033 38.4905 14.8567 38.4105 14.99C38.3305 15.1167 38.1771 15.18 37.9505 15.18H31.6005ZM42.6941 11C42.9007 10.7933 43.1174 10.6033 43.3441 10.43C43.5774 10.25 43.8207 10.1 44.0741 9.98C44.3341 9.85333 44.6107 9.75667 44.9041 9.69C45.1974 9.61667 45.5174 9.58 45.8641 9.58C46.4241 9.58 46.9207 9.67667 47.3541 9.87C47.7874 10.0567 48.1474 10.3233 48.4341 10.67C48.7274 11.01 48.9474 11.42 49.0941 11.9C49.2474 12.3733 49.3241 12.8967 49.3241 13.47V20H46.8541V13.47C46.8541 12.8433 46.7107 12.36 46.4241 12.02C46.1374 11.6733 45.7007 11.5 45.1141 11.5C44.6874 11.5 44.2874 11.5967 43.9141 11.79C43.5407 11.9833 43.1874 12.2467 42.8541 12.58V20H40.3841V9.74H41.8941C42.2141 9.74 42.4241 9.89 42.5241 10.19L42.6941 11ZM61.8864 20H59.4164V11.59H54.6564V17.15C54.6564 17.47 54.7331 17.72 54.8864 17.9C55.0464 18.08 55.2631 18.17 55.5364 18.17C55.6897 18.17 55.8164 18.1533 55.9164 18.12C56.0231 18.08 56.1131 18.04 56.1864 18C56.2664 17.96 56.3364 17.9233 56.3964 17.89C56.4564 17.85 56.5164 17.83 56.5764 17.83C56.6497 17.83 56.7097 17.85 56.7564 17.89C56.8031 17.9233 56.8531 17.9767 56.9064 18.05L57.6464 19.25C57.2864 19.55 56.8731 19.7767 56.4064 19.93C55.9397 20.0833 55.4564 20.16 54.9564 20.16C54.0631 20.16 53.3764 19.91 52.8964 19.41C52.4231 18.9033 52.1864 18.2067 52.1864 17.32V11.59H51.1364C51.0031 11.59 50.8897 11.5467 50.7964 11.46C50.7031 11.3733 50.6564 11.2433 50.6564 11.07V10.09L52.3064 9.81L52.8264 7.02C52.8597 6.88667 52.9231 6.78333 53.0164 6.71C53.1097 6.63667 53.2297 6.6 53.3764 6.6H54.6564V9.83H61.8864V20ZM62.3164 6.71C62.3164 6.92333 62.2731 7.12667 62.1864 7.32C62.0997 7.50667 61.9831 7.67 61.8364 7.81C61.6964 7.95 61.5264 8.06333 61.3264 8.15C61.1331 8.23 60.9264 8.27 60.7064 8.27C60.4931 8.27 60.2931 8.23 60.1064 8.15C59.9197 8.06333 59.7564 7.95 59.6164 7.81C59.4764 7.67 59.3631 7.50667 59.2764 7.32C59.1964 7.12667 59.1564 6.92333 59.1564 6.71C59.1564 6.49 59.1964 6.28667 59.2764 6.1C59.3631 5.90667 59.4764 5.74 59.6164 5.6C59.7564 5.45333 59.9197 5.34 60.1064 5.26C60.2931 5.17333 60.4931 5.13 60.7064 5.13C60.9264 5.13 61.1331 5.17333 61.3264 5.26C61.5264 5.34 61.6964 5.45333 61.8364 5.6C61.9831 5.74 62.0997 5.90667 62.1864 6.1C62.2731 6.28667 62.3164 6.49 62.3164 6.71ZM66.7175 11C66.9242 10.7933 67.1408 10.6033 67.3675 10.43C67.6008 10.25 67.8442 10.1 68.0975 9.98C68.3575 9.85333 68.6342 9.75667 68.9275 9.69C69.2208 9.61667 69.5408 9.58 69.8875 9.58C70.4475 9.58 70.9442 9.67667 71.3775 9.87C71.8108 10.0567 72.1708 10.3233 72.4575 10.67C72.7508 11.01 72.9708 11.42 73.1175 11.9C73.2708 12.3733 73.3475 12.8967 73.3475 13.47V20H70.8775V13.47C70.8775 12.8433 70.7342 12.36 70.4475 12.02C70.1608 11.6733 69.7242 11.5 69.1375 11.5C68.7108 11.5 68.3108 11.5967 67.9375 11.79C67.5642 11.9833 67.2108 12.2467 66.8775 12.58V20H64.4075V9.74H65.9175C66.2375 9.74 66.4475 9.89 66.5475 10.19L66.7175 11ZM85.8934 14.86C85.8934 15.6733 85.7934 16.4067 85.5934 17.06C85.3934 17.7133 85.0934 18.27 84.6934 18.73C84.3001 19.19 83.8068 19.5433 83.2134 19.79C82.6201 20.0367 81.9301 20.16 81.1434 20.16C80.7834 20.16 80.4301 20.1367 80.0834 20.09C79.7368 20.05 79.3734 19.9833 78.9934 19.89C79.0134 19.6233 79.0368 19.3567 79.0634 19.09C79.0901 18.8233 79.1134 18.5567 79.1334 18.29C79.1534 18.1433 79.2101 18.0267 79.3034 17.94C79.4034 17.8467 79.5434 17.8 79.7234 17.8C79.8368 17.8 79.9834 17.8233 80.1634 17.87C80.3501 17.9167 80.5834 17.94 80.8634 17.94C81.2434 17.94 81.5801 17.8867 81.8734 17.78C82.1668 17.6667 82.4101 17.49 82.6034 17.25C82.8034 17.01 82.9534 16.7 83.0534 16.32C83.1534 15.9333 83.2034 15.4667 83.2034 14.92V5.54H85.8934V14.86ZM93.6556 15.62C92.9423 15.6533 92.3423 15.7167 91.8556 15.81C91.369 15.8967 90.979 16.01 90.6856 16.15C90.3923 16.29 90.1823 16.4533 90.0556 16.64C89.929 16.8267 89.8656 17.03 89.8656 17.25C89.8656 17.6833 89.9923 17.9933 90.2456 18.18C90.5056 18.3667 90.8423 18.46 91.2556 18.46C91.7623 18.46 92.199 18.37 92.5656 18.19C92.939 18.0033 93.3023 17.7233 93.6556 17.35V15.62ZM87.9956 11.17C89.1756 10.09 90.5956 9.55 92.2556 9.55C92.8556 9.55 93.3923 9.65 93.8656 9.85C94.339 10.0433 94.739 10.3167 95.0656 10.67C95.3923 11.0167 95.639 11.4333 95.8056 11.92C95.979 12.4067 96.0656 12.94 96.0656 13.52V20H94.9456C94.7123 20 94.5323 19.9667 94.4056 19.9C94.279 19.8267 94.179 19.6833 94.1056 19.47L93.8856 18.73C93.6256 18.9633 93.3723 19.17 93.1256 19.35C92.879 19.5233 92.6223 19.67 92.3556 19.79C92.089 19.91 91.8023 20 91.4956 20.06C91.1956 20.1267 90.8623 20.16 90.4956 20.16C90.0623 20.16 89.6623 20.1033 89.2956 19.99C88.929 19.87 88.6123 19.6933 88.3456 19.46C88.079 19.2267 87.8723 18.9367 87.7256 18.59C87.579 18.2433 87.5056 17.84 87.5056 17.38C87.5056 17.12 87.549 16.8633 87.6356 16.61C87.7223 16.35 87.8623 16.1033 88.0556 15.87C88.2556 15.6367 88.5123 15.4167 88.8256 15.21C89.139 15.0033 89.5223 14.8233 89.9756 14.67C90.4356 14.5167 90.969 14.3933 91.5756 14.3C92.1823 14.2 92.8756 14.14 93.6556 14.12V13.52C93.6556 12.8333 93.509 12.3267 93.2156 12C92.9223 11.6667 92.499 11.5 91.9456 11.5C91.5456 11.5 91.2123 11.5467 90.9456 11.64C90.6856 11.7333 90.4556 11.84 90.2556 11.96C90.0556 12.0733 89.8723 12.1767 89.7056 12.27C89.5456 12.3633 89.3656 12.41 89.1656 12.41C88.9923 12.41 88.8456 12.3667 88.7256 12.28C88.6056 12.1867 88.509 12.08 88.4356 11.96L87.9956 11.17ZM105.742 11.91C105.669 12.0033 105.595 12.0767 105.522 12.13C105.455 12.1833 105.355 12.21 105.222 12.21C105.095 12.21 104.972 12.1733 104.852 12.1C104.732 12.02 104.589 11.9333 104.422 11.84C104.255 11.74 104.055 11.6533 103.822 11.58C103.595 11.5 103.312 11.46 102.972 11.46C102.539 11.46 102.159 11.54 101.832 11.7C101.505 11.8533 101.232 12.0767 101.012 12.37C100.799 12.6633 100.639 13.02 100.532 13.44C100.425 13.8533 100.372 14.3233 100.372 14.85C100.372 15.3967 100.429 15.8833 100.542 16.31C100.662 16.7367 100.832 17.0967 101.052 17.39C101.272 17.6767 101.539 17.8967 101.852 18.05C102.165 18.1967 102.519 18.27 102.912 18.27C103.305 18.27 103.622 18.2233 103.862 18.13C104.109 18.03 104.315 17.9233 104.482 17.81C104.649 17.69 104.792 17.5833 104.912 17.49C105.039 17.39 105.179 17.34 105.332 17.34C105.532 17.34 105.682 17.4167 105.782 17.57L106.492 18.47C106.219 18.79 105.922 19.06 105.602 19.28C105.282 19.4933 104.949 19.6667 104.602 19.8C104.262 19.9267 103.909 20.0167 103.542 20.07C103.182 20.1233 102.822 20.15 102.462 20.15C101.829 20.15 101.232 20.0333 100.672 19.8C100.112 19.56 99.6219 19.2133 99.2019 18.76C98.7819 18.3067 98.4485 17.7533 98.2019 17.1C97.9619 16.44 97.8419 15.69 97.8419 14.85C97.8419 14.0967 97.9485 13.4 98.1619 12.76C98.3819 12.1133 98.7019 11.5567 99.1219 11.09C99.5419 10.6167 100.062 10.2467 100.682 9.98C101.302 9.71333 102.015 9.58 102.822 9.58C103.589 9.58 104.259 9.70333 104.832 9.95C105.412 10.1967 105.932 10.55 106.392 11.01L105.742 11.91ZM112.405 9.58C113.165 9.58 113.855 9.70333 114.475 9.95C115.101 10.1967 115.635 10.5467 116.075 11C116.521 11.4533 116.865 12.0067 117.105 12.66C117.345 13.3133 117.465 14.0433 117.465 14.85C117.465 15.6633 117.345 16.3967 117.105 17.05C116.865 17.7033 116.521 18.26 116.075 18.72C115.635 19.18 115.101 19.5333 114.475 19.78C113.855 20.0267 113.165 20.15 112.405 20.15C111.638 20.15 110.941 20.0267 110.315 19.78C109.688 19.5333 109.151 19.18 108.705 18.72C108.265 18.26 107.921 17.7033 107.675 17.05C107.435 16.3967 107.315 15.6633 107.315 14.85C107.315 14.0433 107.435 13.3133 107.675 12.66C107.921 12.0067 108.265 11.4533 108.705 11C109.151 10.5467 109.688 10.1967 110.315 9.95C110.941 9.70333 111.638 9.58 112.405 9.58ZM112.405 18.25C113.258 18.25 113.888 17.9633 114.295 17.39C114.708 16.8167 114.915 15.9767 114.915 14.87C114.915 13.7633 114.708 12.92 114.295 12.34C113.888 11.76 113.258 11.47 112.405 11.47C111.538 11.47 110.895 11.7633 110.475 12.35C110.061 12.93 109.855 13.77 109.855 14.87C109.855 15.97 110.061 16.81 110.475 17.39C110.895 17.9633 111.538 18.25 112.405 18.25ZM119.815 20V11.6L118.925 11.46C118.732 11.42 118.575 11.3533 118.455 11.26C118.342 11.16 118.285 11.02 118.285 10.84V9.83H119.815V9.07C119.815 8.48333 119.902 7.95667 120.075 7.49C120.255 7.02333 120.508 6.62667 120.835 6.3C121.168 5.97333 121.572 5.72333 122.045 5.55C122.518 5.37667 123.052 5.29 123.645 5.29C124.118 5.29 124.558 5.35333 124.965 5.48L124.915 6.72C124.908 6.81333 124.882 6.89 124.835 6.95C124.788 7.00333 124.725 7.04667 124.645 7.08C124.572 7.10667 124.485 7.12667 124.385 7.14C124.285 7.14667 124.178 7.15 124.065 7.15C123.772 7.15 123.508 7.18333 123.275 7.25C123.048 7.31 122.855 7.42 122.695 7.58C122.535 7.73333 122.412 7.94 122.325 8.2C122.245 8.45333 122.205 8.77 122.205 9.15V9.83H124.875V11.59H122.285V20H119.815ZM132.523 11.74C132.456 11.8467 132.386 11.9233 132.313 11.97C132.24 12.01 132.146 12.03 132.033 12.03C131.913 12.03 131.783 11.9967 131.643 11.93C131.51 11.8633 131.353 11.79 131.173 11.71C130.993 11.6233 130.786 11.5467 130.553 11.48C130.326 11.4133 130.056 11.38 129.743 11.38C129.256 11.38 128.873 11.4833 128.593 11.69C128.32 11.8967 128.183 12.1667 128.183 12.5C128.183 12.72 128.253 12.9067 128.393 13.06C128.54 13.2067 128.73 13.3367 128.963 13.45C129.203 13.5633 129.473 13.6667 129.773 13.76C130.073 13.8467 130.376 13.9433 130.683 14.05C130.996 14.1567 131.303 14.28 131.603 14.42C131.903 14.5533 132.17 14.7267 132.403 14.94C132.643 15.1467 132.833 15.3967 132.973 15.69C133.12 15.9833 133.193 16.3367 133.193 16.75C133.193 17.2433 133.103 17.7 132.923 18.12C132.75 18.5333 132.49 18.8933 132.143 19.2C131.796 19.5 131.366 19.7367 130.853 19.91C130.346 20.0767 129.76 20.16 129.093 20.16C128.74 20.16 128.393 20.1267 128.053 20.06C127.72 20 127.396 19.9133 127.083 19.8C126.776 19.6867 126.49 19.5533 126.223 19.4C125.963 19.2467 125.733 19.08 125.533 18.9L126.103 17.96C126.176 17.8467 126.263 17.76 126.363 17.7C126.463 17.64 126.59 17.61 126.743 17.61C126.896 17.61 127.04 17.6533 127.173 17.74C127.313 17.8267 127.473 17.92 127.653 18.02C127.833 18.12 128.043 18.2133 128.283 18.3C128.53 18.3867 128.84 18.43 129.213 18.43C129.506 18.43 129.756 18.3967 129.963 18.33C130.176 18.2567 130.35 18.1633 130.483 18.05C130.623 17.9367 130.723 17.8067 130.783 17.66C130.85 17.5067 130.883 17.35 130.883 17.19C130.883 16.95 130.81 16.7533 130.663 16.6C130.523 16.4467 130.333 16.3133 130.093 16.2C129.86 16.0867 129.59 15.9867 129.283 15.9C128.983 15.8067 128.673 15.7067 128.353 15.6C128.04 15.4933 127.73 15.37 127.423 15.23C127.123 15.0833 126.853 14.9 126.613 14.68C126.38 14.46 126.19 14.19 126.043 13.87C125.903 13.55 125.833 13.1633 125.833 12.71C125.833 12.29 125.916 11.89 126.083 11.51C126.25 11.13 126.493 10.8 126.813 10.52C127.14 10.2333 127.543 10.0067 128.023 9.84C128.51 9.66667 129.07 9.58 129.703 9.58C130.41 9.58 131.053 9.69667 131.633 9.93C132.213 10.1633 132.696 10.47 133.083 10.85L132.523 11.74ZM137.522 5.14V13.65H137.982C138.149 13.65 138.279 13.63 138.372 13.59C138.472 13.5433 138.572 13.4533 138.672 13.32L141.222 10.17C141.329 10.03 141.445 9.92333 141.572 9.85C141.705 9.77667 141.875 9.74 142.082 9.74H144.342L141.152 13.55C140.925 13.85 140.679 14.08 140.412 14.24C140.552 14.34 140.675 14.4567 140.782 14.59C140.895 14.7233 141.002 14.8667 141.102 15.02L144.522 20H142.292C142.099 20 141.932 19.97 141.792 19.91C141.652 19.8433 141.535 19.7267 141.442 19.56L138.822 15.67C138.729 15.5167 138.632 15.4167 138.532 15.37C138.432 15.3233 138.282 15.3 138.082 15.3H137.522V20H135.052V5.14H137.522ZM155.056 9.74L149.466 22.82C149.392 22.9933 149.296 23.1233 149.176 23.21C149.062 23.3033 148.886 23.35 148.646 23.35H146.806L148.726 19.23L144.576 9.74H146.746C146.939 9.74 147.089 9.78667 147.196 9.88C147.309 9.97333 147.392 10.08 147.446 10.2L149.626 15.52C149.699 15.7 149.759 15.88 149.806 16.06C149.859 16.24 149.909 16.4233 149.956 16.61C150.016 16.4233 150.076 16.24 150.136 16.06C150.196 15.8733 150.262 15.69 150.336 15.51L152.396 10.2C152.449 10.0667 152.536 9.95667 152.656 9.87C152.782 9.78333 152.922 9.74 153.076 9.74H155.056Z" fill="black"/>
<line x1="17.5" y1="34.5" x2="2.5" y2="34.5" stroke="#0ACF83" stroke-width="3" stroke-linecap="round"/>
</svg>
