<svg width="1920" height="147" viewBox="0 0 1920 147" fill="none" xmlns="http://www.w3.org/2000/svg">
<path d="M1920 117.006L1856.24 117.006C1792.62 117.006 1665.37 117.006 1538.13 122.403C1410.89 127.599 1283.65 138.696 1156.4 143.891C1029.16 149.289 901.92 149.289 774.678 130.474C647.436 111.457 520.194 74.1293 392.952 63.1832C265.709 52.439 138.467 68.5806 74.8461 76.6514L0.000249709 83.3083L0.000256992 -5.02999e-09L75.5328 6.59824e-06C75.5328 6.59824e-06 635.032 -5.52395e-06 479.622 -1.91104e-05L774.15 -8.62064e-06L1155.48 -5.80156e-06L1536.64 -2.99645e-06C1663.89 8.12742e-06 1766.34 -1.25071e-06 1855.41 9.61231e-06L1920 1.52588e-05L1920 117.006Z" fill="#0ACF83"/>
</svg>
